<svg width="68" height="95" viewBox="0 0 68 95" fill="none" xmlns="http://www.w3.org/2000/svg">
<g clip-path="url(#clip0_91_629)">
<path d="M65.3344 0H2.69446C1.40617 0 0.364746 1.02822 0.364746 2.30017V92.7074C0.364746 93.9794 1.40617 95.0076 2.69446 95.0076H65.3344C66.6227 95.0076 67.6641 93.9794 67.6641 92.7074V2.30017C67.6564 1.02822 66.615 0 65.3344 0Z" fill="url(#paint0_linear_91_629)"/>
<path d="M61.2225 4.09766H6.79827C5.54856 4.09766 4.53027 5.10303 4.53027 6.34451V81.0923C4.53027 82.3338 5.54856 83.3316 6.79827 83.3316H61.2225C62.48 83.3316 63.4905 82.3262 63.4905 81.0923V6.34451C63.4905 5.10303 62.48 4.09766 61.2225 4.09766Z" fill="#FDEFFE"/>
<path d="M45.1386 39.6361H22.8906C21.8723 39.6361 21.0469 38.8211 21.0469 37.8158V15.8423C21.0469 14.8369 21.8723 14.022 22.8906 14.022H45.1386C46.1569 14.022 46.9823 14.8369 46.9823 15.8423V37.8081C46.9823 38.8135 46.1569 39.6361 45.1386 39.6361Z" fill="url(#paint1_linear_91_629)"/>
<path d="M34.0145 92.5476C35.9062 92.5476 37.4396 91.0335 37.4396 89.1659C37.4396 87.2982 35.9062 85.7842 34.0145 85.7842C32.1228 85.7842 30.5894 87.2982 30.5894 89.1659C30.5894 91.0335 32.1228 92.5476 34.0145 92.5476Z" fill="#FDEFFE"/>
<path d="M53.4006 51.0149H14.6209C13.6412 51.0149 12.8389 50.2228 12.8389 49.2555C12.8389 48.2882 13.6412 47.4961 14.6209 47.4961H53.3928C54.3726 47.4961 55.1748 48.2882 55.1748 49.2555C55.1748 50.2228 54.3803 51.0149 53.4006 51.0149Z" fill="url(#paint2_linear_91_629)"/>
<path opacity="0.6" d="M46.8358 60.7639H13.973C13.3481 60.7639 12.8467 60.2612 12.8467 59.6518V59.53C12.8467 58.913 13.3558 58.418 13.973 58.418H46.8358C47.4607 58.418 47.9621 58.9207 47.9621 59.53V59.6518C47.9698 60.2612 47.4607 60.7639 46.8358 60.7639Z" fill="url(#paint3_linear_91_629)"/>
<path opacity="0.3" d="M40.5794 66.9563H13.8649C13.3017 66.9563 12.8389 66.4993 12.8389 65.9433V65.6082C12.8389 65.0522 13.3017 64.5952 13.8649 64.5952H40.5717C41.1349 64.5952 41.5977 65.0522 41.5977 65.6082V65.9433C41.5977 66.4993 41.1348 66.9563 40.5794 66.9563Z" fill="url(#paint4_linear_91_629)"/>
<path opacity="0.6" d="M43.9429 72.6916H13.9267C13.3327 72.6916 12.8467 72.2117 12.8467 71.6253V71.412C12.8467 70.8255 13.3327 70.3457 13.9267 70.3457H43.9429C44.5369 70.3457 45.0229 70.8255 45.0229 71.412V71.6253C45.0229 72.2041 44.5369 72.6916 43.9429 72.6916Z" fill="url(#paint5_linear_91_629)"/>
<path d="M34.0812 26.1206C36.3088 26.1206 38.1145 24.3139 38.1145 22.0852C38.1145 19.8564 36.3088 18.0498 34.0812 18.0498C31.8536 18.0498 30.0479 19.8564 30.0479 22.0852C30.0479 24.3139 31.8452 26.1206 34.0812 26.1206ZM34.0812 28.1383C31.3895 28.1383 26.0146 29.489 26.0146 32.1737V33.1867C26.0146 33.7439 26.4703 34.1998 27.0272 34.1998H41.1521C41.709 34.1998 42.1646 33.7439 42.1646 33.1867V32.1737C42.1478 29.4975 36.7729 28.1383 34.0812 28.1383Z" fill="#FDEFFE"/>
</g>
<defs>
<linearGradient id="paint0_linear_91_629" x1="4.44173" y1="45.0301" x2="67.7092" y2="50.4539" gradientUnits="userSpaceOnUse">
<stop stop-color="#6CBCFC"/>
<stop offset="1" stop-color="#458DFC"/>
</linearGradient>
<linearGradient id="paint1_linear_91_629" x1="19.0357" y1="19.2924" x2="48.8303" y2="34.6686" gradientUnits="userSpaceOnUse">
<stop stop-color="#C46DE3"/>
<stop offset="0.0856277" stop-color="#A3F0FE"/>
<stop offset="0.2972" stop-color="#8AE7FD"/>
<stop offset="0.5161" stop-color="#77E1FD"/>
<stop offset="0.7451" stop-color="#6DDDFC"/>
<stop offset="1" stop-color="#69DCFC"/>
</linearGradient>
<linearGradient id="paint2_linear_91_629" x1="55.1786" y1="49.2569" x2="12.8461" y2="49.2569" gradientUnits="userSpaceOnUse">
<stop stop-color="#6CBCFC"/>
<stop offset="1" stop-color="#458DFC"/>
</linearGradient>
<linearGradient id="paint3_linear_91_629" x1="47.9676" y1="59.5875" x2="12.8462" y2="59.5875" gradientUnits="userSpaceOnUse">
<stop stop-color="#6CBCFC"/>
<stop offset="1" stop-color="#458DFC"/>
</linearGradient>
<linearGradient id="paint4_linear_91_629" x1="41.5985" y1="65.78" x2="12.8461" y2="65.78" gradientUnits="userSpaceOnUse">
<stop stop-color="#6CBCFC"/>
<stop offset="1" stop-color="#458DFC"/>
</linearGradient>
<linearGradient id="paint5_linear_91_629" x1="45.0223" y1="71.5125" x2="12.8462" y2="71.5125" gradientUnits="userSpaceOnUse">
<stop stop-color="#6CBCFC"/>
<stop offset="1" stop-color="#458DFC"/>
</linearGradient>
<clipPath id="clip0_91_629">
<rect width="67.2917" height="95" fill="white" transform="translate(0.364746)"/>
</clipPath>
</defs>
</svg>
