<svg width="123" height="123" viewBox="0 0 123 123" fill="none" xmlns="http://www.w3.org/2000/svg">
<ellipse cx="61.5" cy="100" rx="53.5" ry="14" fill="url(#paint0_linear_45_94)"/>
<g filter="url(#filter0_b_45_94)">
<path d="M113 32.7857C113.001 32.718 112.979 32.6511 112.936 32.5919C112.893 32.5326 112.83 32.4831 112.754 32.4482L62.2509 10.0534C62.1735 10.0185 62.0851 10 61.9951 10C61.905 10 61.8166 10.0185 61.7392 10.0534L11.251 32.6995C10.9164 32.8495 10.9164 33.2245 11.251 33.3745L61.749 55.7693C61.8273 55.8031 61.9162 55.8203 62.0062 55.8189C62.0963 55.8176 62.1842 55.7979 62.2608 55.7618L112.754 33.1232C112.83 33.0884 112.893 33.0388 112.936 32.9796C112.979 32.9203 113.001 32.8535 113 32.7857ZM113 43.5219C113 43.4541 112.977 43.3874 112.933 43.3285C112.889 43.2697 112.826 43.2207 112.749 43.1865C112.672 43.1523 112.585 43.1341 112.496 43.1337C112.407 43.1333 112.319 43.1508 112.242 43.1844L68.1166 62.6317C68.0383 62.6657 67.973 62.7148 67.9272 62.774C67.8815 62.8332 67.8569 62.9005 67.8558 62.9692L67.8558 74.6578C67.8558 74.9578 68.2888 75.1453 68.6284 74.9953L112.749 55.548C112.826 55.5133 112.889 55.4639 112.933 55.4047C112.977 55.3455 113 55.2786 113 55.2105L113 43.5219ZM113 65.6129C113 65.5453 112.977 65.4789 112.932 65.4204C112.888 65.3619 112.824 65.3134 112.747 65.2799C112.67 65.2463 112.583 65.2289 112.494 65.2295C112.405 65.23 112.318 65.2485 112.242 65.2829L62.0049 87.4602L11.7677 65.2829C11.6914 65.2484 11.6044 65.23 11.5157 65.2295C11.4271 65.2289 11.3397 65.2463 11.2627 65.2799C11.1857 65.3134 11.1218 65.3619 11.0773 65.4204C11.0329 65.4789 11.0096 65.5453 11.0098 65.6129L11.0098 77.324C11.0086 77.3907 11.0308 77.4565 11.074 77.5145C11.1173 77.5725 11.1801 77.6207 11.2559 77.654L61.7539 99.9476C61.8299 99.9819 61.9166 100 62.0049 100C62.0932 100 62.1799 99.9819 62.2559 99.9476L112.749 77.654C112.826 77.6212 112.889 77.5732 112.934 77.5152C112.978 77.4571 113.001 77.3911 113 77.324L113 65.6129ZM55.4257 62.6504C55.4268 62.5823 55.4036 62.5153 55.3585 62.4565C55.3134 62.3977 55.2482 62.3494 55.1698 62.3167L11.7677 43.1881C11.4281 43.0381 11.0098 43.2256 11.0098 43.5256L11.0098 55.2143C11.0089 55.2819 11.0311 55.3487 11.0742 55.4078C11.1174 55.467 11.18 55.5166 11.2559 55.5517L54.658 74.6766C54.7354 74.7111 54.8234 74.7293 54.9131 74.7294C55.0028 74.7295 55.0909 74.7115 55.1684 74.6772C55.246 74.6429 55.3102 74.5935 55.3545 74.5341C55.3989 74.4747 55.4217 74.4074 55.4208 74.3391L55.4257 62.6504Z" fill="#C46DE3" fill-opacity="0.14"/>
<path d="M112.283 32.7864L62.0562 55.3055L62.0562 55.3054L62.0475 55.3095C62.0394 55.3133 62.0223 55.3187 61.9989 55.319C61.9764 55.3193 61.9586 55.3149 61.9485 55.3107C61.9481 55.3106 61.9477 55.3104 61.9473 55.3103L11.7218 33.0363L61.9438 10.5096L61.945 10.5091C61.9539 10.5051 61.9717 10.5 61.9951 10.5C62.0184 10.5 62.0362 10.5051 62.0451 10.5091L62.0483 10.5105L112.283 32.7864ZM68.3558 74.5472L68.3558 63.0727L112.441 43.643C112.442 43.6429 112.442 43.6428 112.442 43.6427C112.452 43.6383 112.471 43.6336 112.494 43.6337C112.496 43.6337 112.498 43.6338 112.5 43.6338L112.5 55.1114L68.4267 74.5378L68.4263 74.538C68.4126 74.544 68.3938 74.5484 68.3711 74.5481C68.3658 74.548 68.3607 74.5477 68.3558 74.5472ZM112.5 43.5186L112.5 43.5219C112.5 43.5208 112.5 43.5197 112.5 43.5186ZM112.5 55.2138C112.5 55.2127 112.5 55.2116 112.5 55.2105L112.5 55.2138ZM112.444 65.7403L112.448 65.7386C112.457 65.7346 112.474 65.7296 112.497 65.7295C112.498 65.7295 112.499 65.7295 112.5 65.7295L112.5 77.2174L62.0539 99.4901L62.05 99.4919C62.0469 99.4933 62.0422 99.495 62.0363 99.4964C62.0281 99.4984 62.0175 99.5 62.0049 99.5C61.9833 99.5 61.9673 99.4953 61.9598 99.4919L61.9559 99.4902L11.5098 77.2196L11.5098 65.7295C11.5108 65.7295 11.5117 65.7295 11.5127 65.7295C11.5357 65.7296 11.5531 65.7346 11.5619 65.7386L11.5657 65.7403L61.803 87.9176L62.0049 88.0067L62.2068 87.9176L112.444 65.7403ZM11.566 43.6457L54.9256 62.7555L54.9208 74.2293C54.9185 74.2294 54.9162 74.2294 54.9138 74.2294C54.8899 74.2294 54.8714 74.2243 54.8616 74.2199L54.8596 74.219L11.5098 55.1173L11.5098 43.6354C11.5108 43.6354 11.5118 43.6353 11.5127 43.6353C11.5327 43.6351 11.5508 43.6389 11.5656 43.6455L11.566 43.6457ZM11.0098 65.6129L11.0098 77.324L11.0098 65.6129Z" stroke="url(#paint1_linear_45_94)"/>
</g>
<defs>
<filter id="filter0_b_45_94" x="-9" y="-10" width="142" height="130" filterUnits="userSpaceOnUse" color-interpolation-filters="sRGB">
<feFlood flood-opacity="0" result="BackgroundImageFix"/>
<feGaussianBlur in="BackgroundImageFix" stdDeviation="10"/>
<feComposite in2="SourceAlpha" operator="in" result="effect1_backgroundBlur_45_94"/>
<feBlend mode="normal" in="SourceGraphic" in2="effect1_backgroundBlur_45_94" result="shape"/>
</filter>
<linearGradient id="paint0_linear_45_94" x1="14.859" y1="94.4" x2="156.217" y2="109.192" gradientUnits="userSpaceOnUse">
<stop stop-color="#5A9AF9"/>
<stop offset="1" stop-color="#F0F6FF" stop-opacity="0"/>
</linearGradient>
<linearGradient id="paint1_linear_45_94" x1="112.816" y1="79.9237" x2="10.8757" y2="30.7372" gradientUnits="userSpaceOnUse">
<stop stop-color="white"/>
<stop offset="1" stop-color="#C46DE3" stop-opacity="0"/>
</linearGradient>
</defs>
</svg>
