<svg width="81" height="72" viewBox="0 0 81 72" fill="none" xmlns="http://www.w3.org/2000/svg">
<g clip-path="url(#clip0_91_708)">
<path d="M66.8402 14.0107H13.623V71.1274H66.8402V14.0107Z" fill="url(#paint0_linear_91_708)"/>
<path d="M13.4028 14.0107C13.4671 14.0107 13.5313 14.0383 13.623 14.0658C13.623 33.068 13.623 52.0701 13.623 71.0998C9.50331 71.421 6.02584 70.3841 3.26406 67.7233C1.30971 65.8332 0.364644 63.6127 0.364644 61.0987C0.364644 52.1986 0.364644 43.3077 0.364644 34.4076C0.364644 31.0127 0.355469 27.6178 0.355469 24.2229C0.355469 20.1215 2.56673 17.1395 6.63142 15.1209C8.7234 14.0933 11.0448 13.9373 13.4028 14.0107Z" fill="url(#paint1_linear_91_708)"/>
<path d="M57.5456 14.0016C59.922 14.0016 60.1606 14.0016 62.5278 14.0016C62.5278 33.068 62.5278 52.0701 62.5278 71.109C46.37 71.109 34.1484 71.109 17.9355 71.109C17.9355 52.0793 17.9355 33.0771 17.9355 14.0199C20.3028 14.0199 20.8166 14.0199 23.2297 14.0199C23.2297 13.7813 23.2297 13.5978 23.2297 13.4235C23.2297 11.3774 23.2389 9.32212 23.2206 7.27601C23.2022 5.84466 23.5876 4.59681 24.707 3.62422C25.496 2.94524 26.4044 2.59658 27.432 2.59658C30.6159 2.5874 33.7906 2.5874 36.9744 2.5874C42.3237 2.5874 47.6821 2.59658 53.0313 2.5874C54.4351 2.5874 55.6004 3.04617 56.518 4.11051C57.252 4.96382 57.5272 5.96394 57.5272 7.08333C57.5181 9.23954 57.5272 11.3958 57.5272 13.552C57.5181 13.6712 57.5272 13.8089 57.5456 14.0016ZM28.9735 14.0016C29.1937 14.0016 29.3589 14.0016 29.524 14.0016C32.0564 14.0016 34.598 14.0016 37.1304 14.0016C41.8649 14.0016 46.6086 14.0016 51.343 14.0107C51.7192 14.0107 51.8018 13.8914 51.8018 13.5336C51.7835 11.9279 51.8018 10.3222 51.8018 8.71654C51.8018 8.58809 51.7835 8.45963 51.7651 8.322C44.1496 8.322 36.5799 8.322 28.9735 8.322C28.9735 10.2121 28.9735 12.0656 28.9735 14.0016Z" fill="#FEEFFE"/>
<mask id="mask0_91_708" style="mask-type:alpha" maskUnits="userSpaceOnUse" x="17" y="2" width="46" height="70">
<path d="M57.5456 14.0016C59.922 14.0016 60.1606 14.0016 62.5278 14.0016C62.5278 33.068 62.5278 52.0701 62.5278 71.109C46.37 71.109 34.1484 71.109 17.9355 71.109C17.9355 52.0793 17.9355 33.0771 17.9355 14.0199C20.3028 14.0199 20.8166 14.0199 23.2297 14.0199C23.2297 13.7813 23.2297 13.5978 23.2297 13.4235C23.2297 11.3774 23.2389 9.32212 23.2206 7.27601C23.2022 5.84466 23.5876 4.59681 24.707 3.62422C25.496 2.94524 26.4044 2.59658 27.432 2.59658C30.6159 2.5874 33.7906 2.5874 36.9744 2.5874C42.3237 2.5874 47.6821 2.59658 53.0313 2.5874C54.4351 2.5874 55.6004 3.04617 56.518 4.11051C57.252 4.96382 57.5272 5.96394 57.5272 7.08333C57.5181 9.23954 57.5272 11.3958 57.5272 13.552C57.5181 13.6712 57.5272 13.8089 57.5456 14.0016ZM28.9735 14.0016C29.1937 14.0016 29.3589 14.0016 29.524 14.0016C32.0564 14.0016 34.598 14.0016 37.1304 14.0016C41.8649 14.0016 46.6086 14.0016 51.343 14.0107C51.7192 14.0107 51.8018 13.8914 51.8018 13.5336C51.7835 11.9279 51.8018 10.3222 51.8018 8.71654C51.8018 8.58809 51.7835 8.45963 51.7651 8.322C44.1496 8.322 36.5799 8.322 28.9735 8.322C28.9735 10.2121 28.9735 12.0656 28.9735 14.0016Z" fill="#F7F9FC"/>
</mask>
<g mask="url(#mask0_91_708)">
<path d="M58.4607 0H21.3647V14.02H58.4607V0Z" fill="url(#paint2_linear_91_708)"/>
</g>
<path d="M80.3647 24.0763C80.3647 20.2961 78.3003 17.4792 74.6301 15.4331C72.373 14.1761 69.813 13.9375 67.1889 13.9926C66.7852 14.0018 66.8402 14.2128 66.8402 14.433C66.8402 21.0393 66.8402 27.6364 66.8402 34.2426C66.8402 45.8495 66.8402 57.4471 66.8311 69.054C66.8311 69.7238 66.8311 70.3936 66.8311 71.1184C68.4826 71.1735 70.0516 71.1826 71.5931 70.8156C76.8047 69.5861 80.3555 65.7049 80.3555 61.1264C80.3739 48.7856 80.3647 36.4264 80.3647 24.0763Z" fill="url(#paint3_linear_91_708)"/>
<path d="M44.5807 46.7854C44.5807 47.969 44.5807 49.0884 44.5807 50.217C44.5807 51.4924 44.5807 52.7678 44.5807 54.034C44.5807 54.7955 44.1954 55.1992 43.443 55.1992C41.3694 55.2084 39.2957 55.2084 37.2221 55.1992C36.5339 55.1992 36.1486 54.768 36.1486 54.0431C36.1486 51.7676 36.1486 49.4922 36.1486 47.2167C36.1486 47.0882 36.1486 46.9506 36.1486 46.7854C35.9742 46.7854 35.8458 46.7854 35.7082 46.7854C33.4694 46.7854 31.2214 46.7854 28.9826 46.7854C28.0926 46.7854 27.7256 46.4276 27.7256 45.5376C27.7256 43.5649 27.7256 41.5922 27.7256 39.6195C27.7256 38.7203 28.0834 38.3624 28.9734 38.3624C31.203 38.3624 33.4327 38.3624 35.6623 38.3624C35.8091 38.3624 35.9467 38.3624 36.1394 38.3624C36.1394 38.2156 36.1394 38.0964 36.1394 37.9771C36.1394 35.7016 36.1394 33.4261 36.1394 31.1506C36.1394 30.3065 36.5156 29.9395 37.3597 29.9395C39.3324 29.9395 41.3051 29.9395 43.2778 29.9395C44.2045 29.9395 44.5624 30.2881 44.5624 31.2332C44.5716 33.4903 44.5624 35.7383 44.5624 37.9954C44.5624 38.1055 44.5624 38.2156 44.5624 38.3716C44.7092 38.3716 44.8376 38.3716 44.9569 38.3716C47.2324 38.3716 49.5079 38.3716 51.7834 38.3808C52.6183 38.3808 52.9762 38.7478 52.9762 39.5828C52.9762 41.5646 52.9762 43.5465 52.9762 45.5284C52.9762 46.4368 52.6275 46.7854 51.7375 46.7854C49.4712 46.7854 47.2049 46.7854 44.9477 46.7946C44.856 46.7854 44.7459 46.7854 44.5807 46.7854Z" fill="url(#paint4_linear_91_708)"/>
</g>
<defs>
<linearGradient id="paint0_linear_91_708" x1="13.6244" y1="42.5656" x2="66.8376" y2="42.5656" gradientUnits="userSpaceOnUse">
<stop stop-color="#C46DE3"/>
<stop offset="1" stop-color="#C46DE3"/>
</linearGradient>
<linearGradient id="paint1_linear_91_708" x1="0.364644" y1="42.5746" x2="13.6244" y2="42.5746" gradientUnits="userSpaceOnUse">
<stop stop-color="#6CBCFC"/>
<stop offset="1" stop-color="#458DFC"/>
</linearGradient>
<linearGradient id="paint2_linear_91_708" x1="21.3609" y1="7.00849" x2="58.4591" y2="7.00849" gradientUnits="userSpaceOnUse">
<stop stop-color="#6CBCFC"/>
<stop offset="1" stop-color="#458DFC"/>
</linearGradient>
<linearGradient id="paint3_linear_91_708" x1="66.8333" y1="42.5692" x2="80.3655" y2="42.5692" gradientUnits="userSpaceOnUse">
<stop stop-color="#6CBCFC"/>
<stop offset="1" stop-color="#458DFC"/>
</linearGradient>
<linearGradient id="paint4_linear_91_708" x1="27.7312" y1="42.5785" x2="52.9945" y2="42.5785" gradientUnits="userSpaceOnUse">
<stop stop-color="#6CBCFC"/>
<stop offset="1" stop-color="#458DFC"/>
</linearGradient>
<clipPath id="clip0_91_708">
<rect width="80" height="71.1549" fill="white" transform="translate(0.364746)"/>
</clipPath>
</defs>
</svg>
