<svg width="68" height="95" viewBox="0 0 68 95" fill="none" xmlns="http://www.w3.org/2000/svg">
<g clip-path="url(#clip0_91_665)">
<path d="M67.4402 90.4479C67.4402 92.927 65.4337 94.9417 62.9546 94.9417L4.94975 95.0081C2.97646 95.0081 1.30165 93.7395 0.696392 91.9735C0.53886 91.5175 0.455949 91.0366 0.455949 90.5308L0.364746 6.88142C0.364746 4.40237 2.3712 2.38762 4.85026 2.38762L58.1126 2.32958L62.8551 2.32129C65.3342 2.32129 67.349 4.32775 67.349 6.8068L67.4402 90.4479Z" fill="url(#paint0_linear_91_665)"/>
<path d="M61.4289 89.9674L6.46683 90.0255C5.13195 90.0255 4.0541 88.9476 4.0541 87.6128L3.97119 9.76715C3.97119 8.43227 5.04904 7.35442 6.38392 7.35442L61.3377 7.29639C62.6725 7.29639 63.7504 8.37424 63.7504 9.70911L63.8333 87.5547C63.8416 88.8813 62.7637 89.9674 61.4289 89.9674Z" fill="#FEEFFE"/>
<path d="M53.7099 13.7137L13.6222 13.7634C12.2956 13.7634 11.2095 12.6856 11.2095 11.359L11.2012 4.67635C11.2012 3.34976 12.279 2.26362 13.6056 2.26362L53.7016 2.22217C55.0282 2.22217 56.1143 3.30002 56.1143 4.6266L56.1226 11.3093C56.1143 12.6359 55.0365 13.7137 53.7099 13.7137ZM13.6056 3.49071C12.9589 3.49071 12.4283 4.02135 12.4283 4.66806L12.4366 11.3507C12.4366 11.9974 12.9672 12.5281 13.6139 12.5281L53.7099 12.4866C54.3566 12.4866 54.8872 11.956 54.8872 11.3093L54.879 4.6266C54.879 3.97989 54.3483 3.44926 53.7016 3.44926L13.6056 3.49071Z" fill="url(#paint1_linear_91_665)"/>
<path d="M52.5743 5.11564L15.1398 5.1571C14.7252 5.1571 14.3936 4.82545 14.3936 4.41089V0.787659C14.3936 0.373102 14.7252 0.0414557 15.1398 0.0414557L52.566 0C52.9806 0 53.3122 0.331646 53.3122 0.746203V4.36944C53.3205 4.78399 52.9889 5.11564 52.5743 5.11564Z" fill="url(#paint2_linear_91_665)"/>
<path d="M15.1729 5.15714L52.5411 5.11568C52.9723 5.11568 53.3205 4.76746 53.3205 4.33632V2.56201L14.3853 2.60347V4.37777C14.3853 4.80891 14.7418 5.15714 15.1729 5.15714Z" fill="#C46DE3"/>
<path d="M28.3058 81.2116L25.0723 61.6445L22.4523 70.1595L14.9571 70.1678C14.501 70.1678 14.1362 69.803 14.1362 69.347C14.1362 68.891 14.501 68.5262 14.9571 68.5262L21.25 68.5179L25.5697 54.4976L28.8033 74.1144L32.9986 60.6413L35.2289 67.0255L40.2534 54.8458L45.1368 74.1642L46.9775 68.0204L52.3667 68.0121C52.8227 68.0121 53.1875 68.3769 53.1875 68.833C53.1875 69.289 52.8227 69.6538 52.3667 69.6538L48.1963 69.6621L45.0042 80.3162L39.8803 60.0526L35.0963 71.6354L33.0815 65.873L28.3058 81.2116Z" fill="#C46DE3"/>
<path d="M22.7508 43.4869L12.2127 43.4952C10.513 43.4952 9.1201 42.1106 9.1201 40.4109L9.10352 25.6776C9.10352 23.9779 10.4881 22.585 12.1878 22.585L22.7259 22.5767C24.4256 22.5767 25.8185 23.9613 25.8185 25.661L25.8351 40.3943C25.8351 42.094 24.4504 43.4787 22.7508 43.4869ZM12.1795 23.4804C10.969 23.4804 9.99067 24.467 9.99067 25.6776L10.0073 40.4109C10.0073 41.6214 10.9939 42.5998 12.2044 42.5998L22.7425 42.5915C23.953 42.5915 24.9313 41.6049 24.9313 40.3943L24.9147 25.661C24.9147 24.4505 23.9281 23.4721 22.7176 23.4721L12.1795 23.4804Z" fill="url(#paint3_linear_91_665)"/>
<path d="M17.4695 40.6596C22.4525 40.6513 24.0029 37.7742 24.0029 37.7742C23.7791 37.4923 23.4972 37.2436 23.1158 36.9949C21.8058 36.1409 20.7528 35.7761 20.3134 35.4113C19.8657 35.0547 19.6169 34.5324 19.6169 34.5324L19.3433 34.6982C19.3433 34.6982 19.1775 34.1261 19.2687 33.2556C19.2687 33.2556 19.6584 33.1561 19.9486 31.8378C20.4129 31.929 20.9601 30.7516 20.7031 30.3205C20.5372 30.0386 20.3382 30.0635 20.1973 30.1298C20.3382 29.5411 20.9767 26.2827 17.4612 26.2827C13.9458 26.2827 14.5842 29.5411 14.7334 30.1298C14.5925 30.0635 14.3935 30.0386 14.2277 30.3205C13.9706 30.7516 14.5261 31.929 14.9905 31.8378C15.2806 33.1561 15.6786 33.2473 15.6786 33.2473C15.7781 34.1096 15.604 34.6899 15.604 34.6899L15.3304 34.5241C15.3304 34.5241 15.0817 35.0382 14.6339 35.403C14.1862 35.7678 13.1415 36.1409 11.8315 36.9949C11.4501 37.2436 11.1599 37.4923 10.9444 37.7742C10.9361 37.7908 12.4948 40.6679 17.4695 40.6596Z" fill="url(#paint4_linear_91_665)"/>
<path d="M50.2857 27.2781L29.9972 27.3029C29.6159 27.3029 29.3091 26.9962 29.3091 26.6148V26.4987C29.3091 26.1173 29.6159 25.8105 29.9972 25.8105L50.2857 25.7856C50.6671 25.7856 50.9739 26.0924 50.9739 26.4738V26.5899C50.9739 26.9713 50.6588 27.2781 50.2857 27.2781Z" fill="url(#paint5_linear_91_665)"/>
<path d="M42.8237 31.1414L29.9972 31.1579C29.6159 31.1579 29.3091 30.8512 29.3091 30.4698V30.3537C29.3091 29.9723 29.6159 29.6655 29.9972 29.6655L42.8237 29.6489C43.205 29.6489 43.5118 29.9557 43.5118 30.3371V30.4532C43.5118 30.8346 43.205 31.1414 42.8237 31.1414Z" fill="url(#paint6_linear_91_665)"/>
<path opacity="0.6" d="M57.2834 35.7351L30.0055 35.7682C29.6242 35.7682 29.3174 35.4615 29.3174 35.0801V34.964C29.3174 34.5826 29.6242 34.2758 30.0055 34.2758L57.2834 34.2427C57.6648 34.2427 57.9716 34.5494 57.9716 34.9308V35.0469C57.9633 35.4283 57.6565 35.7351 57.2834 35.7351Z" fill="url(#paint7_linear_91_665)"/>
<path opacity="0.6" d="M56.6949 48.6443L11.193 48.694C10.8033 48.694 10.48 48.3789 10.48 47.981V47.9146C10.48 47.525 10.795 47.2016 11.193 47.2016L56.6949 47.1519C57.0845 47.1519 57.4079 47.4669 57.4079 47.8649V47.9312C57.4079 48.3292 57.0845 48.6443 56.6949 48.6443Z" fill="url(#paint8_linear_91_665)"/>
<path opacity="0.6" d="M57.2834 40.2453L30.0055 40.2785C29.6242 40.2785 29.3174 39.9717 29.3174 39.5903V39.4743C29.3174 39.0929 29.6242 38.7861 30.0055 38.7861L57.2834 38.7529C57.6648 38.7529 57.9716 39.0597 57.9716 39.4411V39.5572C57.9716 39.9386 57.6648 40.2453 57.2834 40.2453Z" fill="url(#paint9_linear_91_665)"/>
</g>
<defs>
<linearGradient id="paint0_linear_91_665" x1="-8.92394" y1="34.7477" x2="76.7288" y2="62.578" gradientUnits="userSpaceOnUse">
<stop stop-color="#6CBCFC"/>
<stop offset="0.1713" stop-color="#5EABFC"/>
<stop offset="0.4084" stop-color="#509AFC"/>
<stop offset="0.6698" stop-color="#4890FC"/>
<stop offset="1" stop-color="#458DFC"/>
</linearGradient>
<linearGradient id="paint1_linear_91_665" x1="-4.86035" y1="-21.3748" x2="56.1161" y2="7.98985" gradientUnits="userSpaceOnUse">
<stop stop-color="#CFE9FF"/>
<stop offset="1" stop-color="#A1D6FB"/>
</linearGradient>
<linearGradient id="paint2_linear_91_665" x1="14.3841" y1="2.57952" x2="53.3199" y2="2.57952" gradientUnits="userSpaceOnUse">
<stop stop-color="#B0F4FF"/>
<stop offset="1" stop-color="#69DCFC"/>
</linearGradient>
<linearGradient id="paint3_linear_91_665" x1="14.4996" y1="29.2074" x2="24.2802" y2="41.8333" gradientUnits="userSpaceOnUse">
<stop stop-color="#6CBCFC"/>
<stop offset="1" stop-color="#458DFC"/>
</linearGradient>
<linearGradient id="paint4_linear_91_665" x1="13.439" y1="30.0291" x2="23.2197" y2="42.655" gradientUnits="userSpaceOnUse">
<stop stop-color="#B0F4FF"/>
<stop offset="0.0994384" stop-color="#A1EFFE"/>
<stop offset="0.2994" stop-color="#88E7FD"/>
<stop offset="0.5095" stop-color="#77E1FD"/>
<stop offset="0.7344" stop-color="#6CDDFC"/>
<stop offset="1" stop-color="#69DCFC"/>
</linearGradient>
<linearGradient id="paint5_linear_91_665" x1="29.3102" y1="26.5511" x2="50.9695" y2="26.5641" gradientUnits="userSpaceOnUse">
<stop stop-color="#6CBCFC"/>
<stop offset="1" stop-color="#458DFC"/>
</linearGradient>
<linearGradient id="paint6_linear_91_665" x1="29.3142" y1="30.4034" x2="43.511" y2="30.4034" gradientUnits="userSpaceOnUse">
<stop stop-color="#6CBCFC"/>
<stop offset="1" stop-color="#458DFC"/>
</linearGradient>
<linearGradient id="paint7_linear_91_665" x1="29.3189" y1="35.01" x2="57.967" y2="35.01" gradientUnits="userSpaceOnUse">
<stop stop-color="#6CBCFC"/>
<stop offset="1" stop-color="#458DFC"/>
</linearGradient>
<linearGradient id="paint8_linear_91_665" x1="10.4796" y1="47.9273" x2="57.4056" y2="47.9273" gradientUnits="userSpaceOnUse">
<stop stop-color="#6CBCFC"/>
<stop offset="1" stop-color="#458DFC"/>
</linearGradient>
<linearGradient id="paint9_linear_91_665" x1="29.3235" y1="39.5192" x2="57.9716" y2="39.5192" gradientUnits="userSpaceOnUse">
<stop stop-color="#6CBCFC"/>
<stop offset="1" stop-color="#458DFC"/>
</linearGradient>
<clipPath id="clip0_91_665">
<rect width="67.0754" height="95" fill="white" transform="translate(0.364746)"/>
</clipPath>
</defs>
</svg>
