<svg width="20" height="20" viewBox="0 0 20 20" fill="none" xmlns="http://www.w3.org/2000/svg">
<g clip-path="url(#clip0_343_354)">
<path d="M9.16663 4.23332V1.66666C4.99996 2.08332 1.66663 5.67499 1.66663 9.99999C1.66663 14.325 4.99996 17.9167 9.16663 18.3333V15.7667C6.66663 15.3667 4.16663 12.9333 4.16663 9.99999C4.16663 7.06666 6.66663 4.63332 9.16663 4.23332ZM15.8083 9.16666H18.3333C17.9416 4.99999 15 2.05832 10.8333 1.66666V4.23332C13.3333 4.59166 15.45 6.66666 15.8083 9.16666ZM10.8333 15.7667V18.3333C15 17.9417 17.9416 15 18.3333 10.8333H15.8083C15.45 13.3333 13.3333 15.4083 10.8333 15.7667Z" fill="#FF9800"/>
</g>
<defs>
<clipPath id="clip0_343_354">
<rect width="20" height="20" fill="white"/>
</clipPath>
</defs>
</svg>
