<svg width="63" height="85" viewBox="0 0 63 85" fill="none" xmlns="http://www.w3.org/2000/svg">
<g clip-path="url(#clip0_91_650)">
<path d="M62.2222 26.4808L62.0306 66.2817L61.9986 73.9799C61.9667 80.0969 56.1531 85.0321 48.9979 85.0002L13.2538 84.8405C6.11459 84.7925 0.332935 79.8095 0.364878 73.6764L0.588478 26.1774C0.604449 21.2262 4.43759 17.0417 9.67622 15.6522L9.69219 13.0968V11.7871L53.2463 11.9947L53.2303 15.8598C58.453 17.3132 62.2382 21.5137 62.2222 26.4808Z" fill="url(#paint0_linear_91_650)"/>
<path d="M56.4887 1.77283V2.1242L56.4567 6.27678L56.4248 10.3495V10.8446C56.4248 11.6112 55.7859 12.2341 55.0193 12.2341H54.6839L52.5756 12.2182L50.2598 12.2022L48.1516 12.1862L45.8357 12.1702L43.6955 12.1383L41.3797 12.1223L39.2714 12.1064L36.9396 12.0904L34.8154 12.0744L32.4995 12.0584L30.3913 12.0265L28.0755 12.0105L25.9672 11.9945L23.6354 11.9786L21.5112 11.9626L19.2113 11.9466L17.1031 11.9307L14.7872 11.9147L12.663 11.8987L10.3472 11.8828L8.22296 11.8668H7.88756C7.12093 11.8668 6.49805 11.2279 6.49805 10.4613V10.4453V10.0939L6.56193 1.88463V1.38952C6.56193 0.622886 7.20079 0 7.98339 0H8.31879L12.7589 0.0319429L17.1989 0.0638858L19.3231 0.0798572L21.639 0.0958286L23.7472 0.1118L28.1713 0.159714L30.4872 0.175686L32.5954 0.191657L34.9112 0.207629L37.0195 0.2236L39.3353 0.239572L41.4436 0.255543L43.7594 0.271514L45.8676 0.287486L48.2154 0.319429L50.3237 0.3354L52.6395 0.351372L54.7637 0.367343H55.0991C55.8817 0.383315 56.4887 1.0062 56.4887 1.77283Z" fill="url(#paint1_linear_91_650)"/>
<path d="M56.4887 2.14031L56.4567 6.27691L56.4248 10.3496L54.5242 10.3337L52.0007 10.3177L49.6848 10.3017H47.1454L44.8295 10.2857L42.306 10.2698L39.9902 10.2538H37.4507L35.1348 10.2378L32.5954 10.2219L30.2955 10.2059H27.756L25.4402 10.1899L22.9007 10.1739L20.5849 10.158H18.0614L15.7455 10.142L13.2061 10.126L10.8902 10.1101H8.3667L6.49805 10.0941L6.56193 1.88477L11.002 1.90074L15.8413 1.93268L18.1572 1.94865L20.6967 1.96462H23.0125L27.8519 1.99657L30.3913 2.01254H32.7072L35.2466 2.02851L37.5465 2.04448L40.086 2.06045H42.4018L44.9413 2.07642L47.2412 2.09239L49.7806 2.10837H52.0965L54.636 2.12434L56.4887 2.14031Z" fill="url(#paint2_linear_91_650)"/>
<path d="M62.1753 34.8842L0.541504 34.5928L0.412269 61.9199L62.0461 62.2114L62.1753 34.8842Z" fill="#FDEFFE"/>
<path d="M62.1865 34.8842L0.552734 34.5928L0.529478 39.512L62.1633 39.8034L62.1865 34.8842Z" fill="#F7EBFC"/>
<path d="M24.5777 45.5805L20.6008 45.5645L20.6168 41.5716L15.1386 41.5557L15.1226 45.5326L11.1457 45.5166L11.1138 50.9788L15.0907 50.9948L15.0747 54.9876L20.5529 55.0036L20.5689 51.0267L24.5458 51.0427L24.5777 45.5805Z" fill="url(#paint3_linear_91_650)"/>
<path d="M51.6011 46.9059L31.8924 46.8101C31.3653 46.8101 30.9341 46.3788 30.9341 45.8518V45.4046C30.9341 44.8775 31.3653 44.4463 31.8924 44.4463L51.6011 44.5421C52.1282 44.5421 52.5594 44.9733 52.5594 45.5004V45.9476C52.5594 46.4747 52.1282 46.9059 51.6011 46.9059Z" fill="url(#paint4_linear_91_650)"/>
<path opacity="0.5" d="M51.5855 52.7677L31.8767 52.6719C31.3497 52.6719 30.9185 52.2406 30.9185 51.7136V51.2664C30.9185 50.7393 31.3497 50.3081 31.8767 50.3081L51.5855 50.4039C52.1126 50.4039 52.5438 50.8352 52.5438 51.3622V51.8094C52.5438 52.3365 52.1126 52.7677 51.5855 52.7677Z" fill="url(#paint5_linear_91_650)"/>
<path opacity="0.08" d="M6.49805 1.77267V2.12405L6.52999 6.27662L6.56193 10.3334V10.8285C6.56193 11.5951 7.20079 12.218 7.96742 12.218H8.30282L10.427 12.202L12.7429 12.1861L14.8511 12.1701L17.167 12.1541L19.2752 12.1381L21.5911 12.1222L23.6993 12.1062L26.0151 12.0902L28.1393 12.0743L30.4552 12.0583L32.5634 12.0423L34.8793 12.0263L36.9875 12.0104L39.3034 11.9944L41.4276 11.9784L43.7434 11.9625L45.8517 11.9465L48.1675 11.9305L50.2758 11.9145L52.5916 11.8986L54.7158 11.8826H55.0512C55.8178 11.8826 56.4407 11.2437 56.4407 10.4771V10.4611V10.1098C31.7329 11.1799 7.88756 0.367188 7.88756 0.367188C7.12093 0.383159 6.49805 1.00605 6.49805 1.77267Z" fill="#FEEFFE"/>
</g>
<defs>
<linearGradient id="paint0_linear_91_650" x1="0.364877" y1="11.3335" x2="57.5038" y2="90.1946" gradientUnits="userSpaceOnUse">
<stop stop-color="#FDEFFE"/>
<stop offset="1" stop-color="#458DFC"/>
</linearGradient>
<linearGradient id="paint1_linear_91_650" x1="-629.565" y1="-39.931" x2="-27.2391" y2="2.02206" gradientUnits="userSpaceOnUse">
<stop stop-color="#B0EAFF"/>
<stop offset="0.0525488" stop-color="#A9F2FF"/>
<stop offset="0.2879" stop-color="#8DE8FE"/>
<stop offset="0.5247" stop-color="#79E1FD"/>
<stop offset="0.7618" stop-color="#6DDDFC"/>
<stop offset="1" stop-color="#69DCFC"/>
</linearGradient>
<linearGradient id="paint2_linear_91_650" x1="6.50495" y1="6.11325" x2="56.4908" y2="6.11325" gradientUnits="userSpaceOnUse">
<stop stop-color="#B0F4FF"/>
<stop offset="0.0525488" stop-color="#A9F2FF"/>
<stop offset="0.2879" stop-color="#8DE8FE"/>
<stop offset="0.5247" stop-color="#79E1FD"/>
<stop offset="0.7618" stop-color="#6DDDFC"/>
<stop offset="1" stop-color="#69DCFC"/>
</linearGradient>
<linearGradient id="paint3_linear_91_650" x1="22.3429" y1="43.0955" x2="12.9625" y2="53.9126" gradientUnits="userSpaceOnUse">
<stop stop-color="#6CBCFC"/>
<stop offset="1" stop-color="#458DFC"/>
</linearGradient>
<linearGradient id="paint4_linear_91_650" x1="52.7495" y1="45.6709" x2="29.2514" y2="45.6709" gradientUnits="userSpaceOnUse">
<stop stop-color="#FDEFFE"/>
<stop offset="1" stop-color="#458DFC"/>
</linearGradient>
<linearGradient id="paint5_linear_91_650" x1="30.917" y1="51.5324" x2="52.5441" y2="51.5324" gradientUnits="userSpaceOnUse">
<stop stop-color="#6CBCFC"/>
<stop offset="1" stop-color="#458DFC"/>
</linearGradient>
<clipPath id="clip0_91_650">
<rect width="61.8574" height="85" fill="white" transform="translate(0.364746)"/>
</clipPath>
</defs>
</svg>
