<svg width="126" height="132" viewBox="0 0 126 132" fill="none" xmlns="http://www.w3.org/2000/svg">
<path d="M54.2547 14.0505C50.0429 14.8722 46.0852 16.6784 42.7047 19.3215C39.3241 21.9646 36.6166 25.3697 34.8032 29.2589C32.9898 33.1481 32.1219 37.411 32.2703 41.6996C32.4187 45.9882 33.5793 50.1809 35.6573 53.9353L20.1798 76.8673C19.9802 77.1635 19.8408 77.496 19.7698 77.846C19.6988 78.196 19.6974 78.5566 19.7657 78.9071L22.3568 92.2517C22.4942 92.9595 22.9072 93.5837 23.5049 93.9871C24.1026 94.3904 24.8361 94.5398 25.5439 94.4024L38.8884 91.8113C39.5963 91.6739 40.2205 91.2609 40.6239 90.6632C41.0272 90.0655 41.1766 89.332 41.0391 88.6242L40.0027 83.2864L45.3405 82.2499C46.0484 82.1125 46.6726 81.6995 47.0759 81.1018C47.4793 80.5041 47.6287 79.7707 47.4912 79.0628L46.4548 73.725L51.7926 72.6886C52.1432 72.6208 52.4771 72.4846 52.7751 72.2877C53.0731 72.0909 53.3293 71.8372 53.5293 71.5413L56.0987 67.7294C59.9981 68.2081 63.9549 67.836 67.6967 66.6388C71.4385 65.4416 74.8764 63.4476 77.7737 60.7943C80.6709 58.1409 82.9587 54.8911 84.4795 51.2687C86.0003 47.6464 86.7179 43.7374 86.583 39.8111C86.4482 35.8847 85.464 32.0342 83.6982 28.5247C81.9324 25.0153 79.427 21.9302 76.3545 19.4819C73.282 17.0336 69.7154 15.2802 65.9002 14.3426C62.0851 13.405 58.1121 13.3053 54.2547 14.0505ZM65.85 38.1096C64.7943 38.3146 63.7015 38.2019 62.7098 37.7858C61.7181 37.3697 60.8721 36.6689 60.2787 35.772C59.6853 34.8751 59.3712 33.8224 59.3761 32.7469C59.381 31.6715 59.7047 30.6217 60.3063 29.7302C60.9078 28.8388 61.7602 28.1457 62.7557 27.7387C63.7511 27.3317 64.8449 27.229 65.8987 27.4437C66.9525 27.6583 67.919 28.1806 68.676 28.9445C69.4329 29.7084 69.9464 30.6796 70.1514 31.7354C70.4262 33.151 70.1275 34.6179 69.3208 35.8133C68.5141 37.0087 67.2656 37.8347 65.85 38.1096Z" fill="url(#paint0_linear_51_138)"/>
<g filter="url(#filter0_b_51_138)">
<path d="M115.646 72.6H110.35V57.75C110.35 57.75 110.35 33 85.6 33C60.85 33 60.85 57.75 60.85 57.75V72.6H55.5535C53.0198 72.6 50.5898 73.6065 48.7982 75.3982C47.0065 77.1898 46 79.6198 46 82.1535V122.496C46.0131 125.021 47.0254 127.438 48.8156 129.219C50.6058 131 53.0283 132 55.5535 132H115.646C118.18 132 120.61 130.993 122.402 129.202C124.193 127.41 125.2 124.98 125.2 122.446V82.1535C125.2 79.6198 124.193 77.1898 122.402 75.3982C120.61 73.6065 118.18 72.6 115.646 72.6ZM70.75 60.225C70.75 52.8 70.75 42.9 85.6 42.9C100.45 42.9 100.45 52.8 100.45 60.225V72.6H70.75V60.225ZM85.6 112.2C83.642 112.2 81.7279 111.619 80.0999 110.532C78.4718 109.444 77.2029 107.898 76.4536 106.089C75.7043 104.28 75.5082 102.289 75.8902 100.369C76.2722 98.4482 77.2151 96.6842 78.5996 95.2996C79.9842 93.9151 81.7482 92.9722 83.6686 92.5902C85.589 92.2082 87.5796 92.4043 89.3886 93.1536C91.1976 93.9029 92.7437 95.1718 93.8316 96.7999C94.9194 98.4279 95.5 100.342 95.5 102.3C95.5 104.926 94.457 107.444 92.6004 109.3C90.7437 111.157 88.2256 112.2 85.6 112.2Z" fill="#C46DE3" fill-opacity="0.14"/>
<path d="M109.85 72.6V73.1H110.35H115.646C118.048 73.1 120.35 74.0538 122.048 75.7517C123.746 77.4496 124.7 79.7524 124.7 82.1535V122.446C124.7 124.848 123.746 127.15 122.048 128.848C120.35 130.546 118.048 131.5 115.646 131.5H55.5535C53.1605 131.5 50.8647 130.553 49.1682 128.865C47.472 127.177 46.5127 124.887 46.5 122.495V82.1535C46.5 79.7524 47.4538 77.4496 49.1517 75.7517C50.8496 74.0538 53.1524 73.1 55.5535 73.1H60.85H61.35V72.6V57.7502V57.75L61.35 57.7499L61.35 57.7475L61.3501 57.736L61.3507 57.6871C61.3514 57.643 61.3528 57.5764 61.3558 57.4887C61.3616 57.3133 61.3734 57.0538 61.3971 56.7221C61.4445 56.0587 61.5395 55.1076 61.7299 53.965C62.1112 51.6774 62.8728 48.635 64.391 45.5986C65.9082 42.5642 68.1762 39.5449 71.5688 37.2832C74.9582 35.0236 79.5 33.5 85.6 33.5C91.7 33.5 96.2418 35.0236 99.6312 37.2832C103.024 39.5449 105.292 42.5642 106.809 45.5986C108.327 48.635 109.089 51.6774 109.47 53.965C109.661 55.1076 109.756 56.0587 109.803 56.7221C109.827 57.0538 109.838 57.3133 109.844 57.4887C109.847 57.5764 109.849 57.643 109.849 57.6871L109.85 57.736L109.85 57.7475L109.85 57.7499V57.75V57.7502V72.6ZM100.45 73.1H100.95V72.6V60.225V60.1615C100.95 56.4921 100.95 52.054 99.0327 48.5387C98.0583 46.7523 96.5931 45.2079 94.4088 44.1157C92.2318 43.0272 89.3653 42.4 85.6 42.4C81.8347 42.4 78.9682 43.0272 76.7912 44.1157C74.6069 45.2079 73.1417 46.7523 72.1673 48.5387C70.2499 52.054 70.2499 56.4921 70.25 60.1615V60.225V72.6V73.1H70.75H100.45ZM79.8221 110.947C81.5323 112.09 83.5431 112.7 85.6 112.7C88.3583 112.7 91.0035 111.604 92.9539 109.654C94.9043 107.704 96 105.058 96 102.3C96 100.243 95.3901 98.2323 94.2473 96.5221C93.1045 94.8118 91.4803 93.4788 89.5799 92.6917C87.6796 91.9045 85.5885 91.6985 83.5711 92.0998C81.5537 92.5011 79.7006 93.4916 78.2461 94.9461C76.7916 96.4006 75.8011 98.2537 75.3998 100.271C74.9985 102.288 75.2045 104.38 75.9917 106.28C76.7788 108.18 78.1118 109.805 79.8221 110.947Z" stroke="url(#paint1_linear_51_138)"/>
</g>
<defs>
<filter id="filter0_b_51_138" x="26" y="13" width="119.2" height="139" filterUnits="userSpaceOnUse" color-interpolation-filters="sRGB">
<feFlood flood-opacity="0" result="BackgroundImageFix"/>
<feGaussianBlur in="BackgroundImageFix" stdDeviation="10"/>
<feComposite in2="SourceAlpha" operator="in" result="effect1_backgroundBlur_51_138"/>
<feBlend mode="normal" in="SourceGraphic" in2="effect1_backgroundBlur_51_138" result="shape"/>
</filter>
<linearGradient id="paint0_linear_51_138" x1="44.9009" y1="15.8667" x2="58.8926" y2="87.9272" gradientUnits="userSpaceOnUse">
<stop stop-color="#C0D9FF"/>
<stop offset="1" stop-color="#328EC3"/>
</linearGradient>
<linearGradient id="paint1_linear_51_138" x1="46.1254" y1="47.4114" x2="125.075" y2="132" gradientUnits="userSpaceOnUse">
<stop stop-color="#C46DE3"/>
<stop offset="1" stop-color="white" stop-opacity="0"/>
</linearGradient>
</defs>
</svg>
