<svg width="93" height="90" viewBox="0 0 93 90" fill="none" xmlns="http://www.w3.org/2000/svg">
<g clip-path="url(#clip0_91_617)">
<path d="M56.5805 43.3154L47.5027 51.9804L9.16831 88.5663C8.16192 89.5291 6.87089 90.0105 5.57987 90.0105C4.16685 90.0105 2.75384 89.4369 1.72712 88.3C-0.295828 86.0672 -0.0315231 82.5745 2.29639 80.6694L47.5027 43.8275L52.4838 39.7715L56.5805 43.3154Z" fill="url(#paint0_linear_91_617)"/>
<path d="M47.1061 52.4206L38.1706 60.9422L37.3472 52.185L42.2368 48.2007L47.1061 52.4206Z" fill="#3A81D6" fill-opacity="0.8"/>
<path d="M92.343 29.9078C92.343 46.4288 79.0464 59.8259 62.6595 59.8259C52.3313 59.8259 43.2331 54.5101 37.9165 46.4391C34.7957 41.7071 32.9761 36.0225 32.9761 29.9078C32.9761 13.3868 46.2726 0 62.6595 0C70.0601 0 76.8202 2.72448 82.0148 7.23114C88.3377 12.7211 92.343 20.8433 92.343 29.9078Z" fill="url(#paint1_linear_91_617)"/>
<path d="M62.6594 53.2094C75.4319 53.2094 85.786 42.777 85.786 29.9079C85.786 17.0389 75.4319 6.60645 62.6594 6.60645C49.8869 6.60645 39.5327 17.0389 39.5327 29.9079C39.5327 42.777 49.8869 53.2094 62.6594 53.2094Z" fill="#FEEFFE"/>
<path opacity="0.06" d="M92.3429 29.9076C92.3429 46.4286 79.0464 59.8257 62.6595 59.8257C52.3313 59.8257 43.2331 54.5099 37.9165 46.4389C71.3917 43.6939 80.2154 15.1176 82.0249 7.23096C88.3377 12.7209 92.3429 20.8431 92.3429 29.9076Z" fill="#1A6FB5" fill-opacity="0.5"/>
<path d="M62.6592 29.9592C65.3429 29.9592 67.5183 27.7673 67.5183 25.0634C67.5183 22.3594 65.3429 20.1675 62.6592 20.1675C59.9755 20.1675 57.8001 22.3594 57.8001 25.0634C57.8001 27.7673 59.9653 29.9592 62.6592 29.9592ZM62.6592 32.4072C59.4164 32.4072 52.9409 34.0459 52.9409 37.303V38.5321C52.9409 39.2081 53.4899 39.7612 54.1608 39.7612H71.1779C71.8489 39.7612 72.3978 39.2081 72.3978 38.5321V37.303C72.3775 34.0562 65.902 32.4072 62.6592 32.4072Z" fill="url(#paint2_linear_91_617)"/>
</g>
<defs>
<linearGradient id="paint0_linear_91_617" x1="6.03965" y1="84.3268" x2="54.2893" y2="40.7925" gradientUnits="userSpaceOnUse">
<stop stop-color="#67C3F3"/>
<stop offset="1" stop-color="#5A98F2"/>
</linearGradient>
<linearGradient id="paint1_linear_91_617" x1="50.3823" y1="2.11336" x2="73.1467" y2="52.9053" gradientUnits="userSpaceOnUse">
<stop stop-color="#67C3F3"/>
<stop offset="1" stop-color="#5A98F2"/>
</linearGradient>
<linearGradient id="paint2_linear_91_617" x1="55.6333" y1="28.3949" x2="73.2842" y2="36.9392" gradientUnits="userSpaceOnUse">
<stop stop-color="#B0F4FF"/>
<stop offset="0.071077" stop-color="#A6F1FF"/>
<stop offset="0.2937" stop-color="#8BE8FD"/>
<stop offset="0.5209" stop-color="#78E1FD"/>
<stop offset="0.7536" stop-color="#6DDDFC"/>
<stop offset="1" stop-color="#69DCFC"/>
</linearGradient>
<clipPath id="clip0_91_617">
<rect width="91.978" height="90" fill="white" transform="translate(0.364746)"/>
</clipPath>
</defs>
</svg>
