<svg width="70" height="95" viewBox="0 0 70 95" fill="none" xmlns="http://www.w3.org/2000/svg">
<g clip-path="url(#clip0_91_684)">
<path d="M69.7872 4.31029V90.7055C69.7872 93.0896 67.861 95.0158 65.4769 95.0158H4.67503C2.29095 95 0.364746 93.0738 0.364746 90.7055V4.31029C0.364746 1.92621 2.29095 0 4.67503 0H65.4927C67.861 0 69.7872 1.92621 69.7872 4.31029Z" fill="url(#paint0_linear_91_684)"/>
<path d="M65.3647 7.94666V87.0533C65.3647 89.2363 63.6722 91 61.5774 91H8.1521C6.05726 90.9855 4.36475 89.2218 4.36475 87.0533V7.94666C4.36475 5.76371 6.05726 4 8.1521 4H61.5913C63.6722 4 65.3647 5.76371 65.3647 7.94666Z" fill="url(#paint1_linear_91_684)"/>
<path d="M27.2367 18.2516V22.183C27.2367 22.4672 27.0157 22.6882 26.7315 22.6882H21.916C21.6318 22.6882 21.4107 22.9093 21.4107 23.1935V28.009C21.4107 28.2932 21.1897 28.5142 20.9055 28.5142H16.9741C16.6899 28.5142 16.4689 28.2932 16.4689 28.009V23.1935C16.4689 22.9093 16.2479 22.6882 15.9637 22.6882H11.1639C10.8797 22.6882 10.6587 22.4672 10.6587 22.183V18.2516C10.6587 17.9674 10.8797 17.7464 11.1639 17.7464H15.9795C16.2636 17.7464 16.4847 17.5254 16.4847 17.2412V12.4256C16.4847 12.1415 16.7057 11.9204 16.9899 11.9204H20.9213C21.2055 11.9204 21.4265 12.1415 21.4265 12.4256V17.2412C21.4265 17.5254 21.6476 17.7464 21.9318 17.7464H26.7315C27.0157 17.7464 27.2367 17.9674 27.2367 18.2516Z" fill="url(#paint2_linear_91_684)"/>
<path opacity="0.5" d="M58.9404 39.6766H11.2115C10.8957 39.6766 10.6431 39.424 10.6431 39.1082V37.2925C10.6431 36.9767 10.8957 36.7241 11.2115 36.7241H58.9404C59.2562 36.7241 59.5088 36.9767 59.5088 37.2925V39.1082C59.493 39.424 59.2562 39.6766 58.9404 39.6766Z" fill="url(#paint3_linear_91_684)"/>
<path d="M58.9403 17.0519H35.2574C34.9416 17.0519 34.689 16.7993 34.689 16.4835V14.6836C34.689 14.3679 34.9416 14.1152 35.2574 14.1152H58.9403C59.256 14.1152 59.5086 14.3679 59.5086 14.6836V16.4993C59.4929 16.7993 59.256 17.0519 58.9403 17.0519Z" fill="url(#paint4_linear_91_684)"/>
<path opacity="0.5" d="M51.9301 24.7249H35.2574C34.9416 24.7249 34.689 24.4723 34.689 24.1565V22.3408C34.689 22.0251 34.9416 21.7725 35.2574 21.7725H51.9301C52.2459 21.7725 52.4985 22.0251 52.4985 22.3408V24.1565C52.4827 24.4723 52.2459 24.7249 51.9301 24.7249Z" fill="url(#paint5_linear_91_684)"/>
<path opacity="0.5" d="M58.9404 48.2972H11.2115C10.8957 48.2972 10.6431 48.0446 10.6431 47.7288V45.9131C10.6431 45.5973 10.8957 45.3447 11.2115 45.3447H58.9404C59.2562 45.3447 59.5088 45.5973 59.5088 45.9131V47.7288C59.493 48.0446 59.2562 48.2972 58.9404 48.2972Z" fill="url(#paint6_linear_91_684)"/>
<path opacity="0.5" d="M58.9404 56.9178H11.2115C10.8957 56.9178 10.6431 56.6652 10.6431 56.3494V54.5337C10.6431 54.218 10.8957 53.9653 11.2115 53.9653H58.9404C59.2562 53.9653 59.5088 54.218 59.5088 54.5337V56.3652C59.493 56.6652 59.2562 56.9178 58.9404 56.9178Z" fill="url(#paint7_linear_91_684)"/>
<path opacity="0.5" d="M58.9404 65.5545H11.2115C10.8957 65.5545 10.6431 65.3019 10.6431 64.9861V63.1704C10.6431 62.8547 10.8957 62.6021 11.2115 62.6021H58.9404C59.2562 62.6021 59.5088 62.8547 59.5088 63.1704V64.9861C59.493 65.3019 59.2562 65.5545 58.9404 65.5545Z" fill="url(#paint8_linear_91_684)"/>
<path opacity="0.5" d="M58.9404 74.1747H11.2115C10.8957 74.1747 10.6431 73.9221 10.6431 73.6063V71.7906C10.6431 71.4748 10.8957 71.2222 11.2115 71.2222H58.9404C59.2562 71.2222 59.5088 71.4748 59.5088 71.7906V73.6063C59.493 73.9221 59.2562 74.1747 58.9404 74.1747Z" fill="url(#paint9_linear_91_684)"/>
<path opacity="0.5" d="M58.9404 82.7952H11.2115C10.8957 82.7952 10.6431 82.5426 10.6431 82.2268V80.4112C10.6431 80.0954 10.8957 79.8428 11.2115 79.8428H58.9404C59.2562 79.8428 59.5088 80.0954 59.5088 80.4112V82.2268C59.493 82.5426 59.2562 82.7952 58.9404 82.7952Z" fill="url(#paint10_linear_91_684)"/>
<path opacity="0.1" d="M69.7872 4.31029V90.7055C69.7872 93.0896 67.861 95.0158 65.4769 95.0158H4.67503C2.29095 95 0.364746 93.0738 0.364746 90.7055V89.2056C37.4522 73.8906 54.7249 15.1571 58.6247 0H65.4769C67.861 0 69.7872 1.92621 69.7872 4.31029Z" fill="#1A6FB5" fill-opacity="0.4"/>
</g>
<defs>
<linearGradient id="paint0_linear_91_684" x1="95.3647" y1="126" x2="-5.63526" y2="-5.5" gradientUnits="userSpaceOnUse">
<stop offset="0.3061" stop-color="#5BA7FC"/>
<stop offset="1" stop-color="#69B8FC"/>
</linearGradient>
<linearGradient id="paint1_linear_91_684" x1="8.98884" y1="7.04564" x2="58.3032" y2="78.0313" gradientUnits="userSpaceOnUse">
<stop offset="0.3061" stop-color="#FEEFFE"/>
<stop offset="1" stop-color="white"/>
</linearGradient>
<linearGradient id="paint2_linear_91_684" x1="10.3645" y1="9.50003" x2="25.3645" y2="34" gradientUnits="userSpaceOnUse">
<stop stop-color="#A475E9"/>
<stop offset="0.368525" stop-color="#DA9EED"/>
<stop offset="1" stop-color="#C46DE3"/>
</linearGradient>
<linearGradient id="paint3_linear_91_684" x1="10.6553" y1="38.2071" x2="59.5002" y2="38.2071" gradientUnits="userSpaceOnUse">
<stop stop-color="#6CBCFC"/>
<stop offset="1" stop-color="#458DFC"/>
</linearGradient>
<linearGradient id="paint4_linear_91_684" x1="34.6894" y1="15.5846" x2="59.5001" y2="15.5846" gradientUnits="userSpaceOnUse">
<stop stop-color="#6CBCFC"/>
<stop offset="1" stop-color="#458DFC"/>
</linearGradient>
<linearGradient id="paint5_linear_91_684" x1="34.6894" y1="23.2616" x2="52.4902" y2="23.2616" gradientUnits="userSpaceOnUse">
<stop stop-color="#6CBCFC"/>
<stop offset="1" stop-color="#458DFC"/>
</linearGradient>
<linearGradient id="paint6_linear_91_684" x1="10.6553" y1="46.8316" x2="59.5002" y2="46.8316" gradientUnits="userSpaceOnUse">
<stop stop-color="#6CBCFC"/>
<stop offset="1" stop-color="#458DFC"/>
</linearGradient>
<linearGradient id="paint7_linear_91_684" x1="10.6553" y1="55.4561" x2="59.5002" y2="55.4561" gradientUnits="userSpaceOnUse">
<stop stop-color="#6CBCFC"/>
<stop offset="1" stop-color="#458DFC"/>
</linearGradient>
<linearGradient id="paint8_linear_91_684" x1="10.6553" y1="64.0809" x2="59.5002" y2="64.0809" gradientUnits="userSpaceOnUse">
<stop stop-color="#6CBCFC"/>
<stop offset="1" stop-color="#458DFC"/>
</linearGradient>
<linearGradient id="paint9_linear_91_684" x1="10.6553" y1="72.705" x2="59.5002" y2="72.705" gradientUnits="userSpaceOnUse">
<stop stop-color="#6CBCFC"/>
<stop offset="1" stop-color="#458DFC"/>
</linearGradient>
<linearGradient id="paint10_linear_91_684" x1="10.6553" y1="81.3294" x2="59.5002" y2="81.3294" gradientUnits="userSpaceOnUse">
<stop stop-color="#6CBCFC"/>
<stop offset="1" stop-color="#458DFC"/>
</linearGradient>
<clipPath id="clip0_91_684">
<rect width="69.4225" height="95" fill="white" transform="translate(0.364746)"/>
</clipPath>
</defs>
</svg>
